<svg width="512" height="152" viewBox="0 0 512 152" fill="none" xmlns="http://www.w3.org/2000/svg">
<path d="M116.9 129V56.85H141.15C148.283 56.85 154.383 58.2833 159.45 61.15C164.517 63.9833 168.4 68.0833 171.1 73.45C173.833 78.7833 175.2 85.2333 175.2 92.8V92.9C175.2 100.467 173.85 106.95 171.15 112.35C168.45 117.75 164.567 121.883 159.5 124.75C154.433 127.583 148.317 129 141.15 129H116.9ZM125.9 120.9H140.55C146.017 120.9 150.633 119.817 154.4 117.65C158.2 115.483 161.083 112.333 163.05 108.2C165.017 104.033 166 98.9667 166 93V92.9C166 86.9 165.017 81.8167 163.05 77.65C161.083 73.4833 158.2 70.3333 154.4 68.2C150.633 66.0333 146.017 64.95 140.55 64.95H125.9V120.9ZM207.45 130C202.483 130 198.2 128.9 194.6 126.7C191.033 124.5 188.283 121.4 186.35 117.4C184.45 113.367 183.5 108.633 183.5 103.2V103.15C183.5 97.7833 184.467 93.0667 186.4 89C188.333 84.9 191.05 81.7167 194.55 79.45C198.05 77.15 202.167 76 206.9 76C211.633 76 215.7 77.1 219.1 79.3C222.533 81.4667 225.167 84.5167 227 88.45C228.833 92.3833 229.75 96.95 229.75 102.15V105.35H187.85V98.55H225.45L221.05 104.85V101.5C221.05 97.4667 220.433 94.1333 219.2 91.5C218 88.8667 216.333 86.9167 214.2 85.65C212.067 84.35 209.617 83.7 206.85 83.7C204.083 83.7 201.6 84.3833 199.4 85.75C197.2 87.0833 195.467 89.0833 194.2 91.75C192.933 94.3833 192.3 97.6333 192.3 101.5V104.85C192.3 108.517 192.917 111.65 194.15 114.25C195.417 116.85 197.2 118.85 199.5 120.25C201.8 121.617 204.517 122.3 207.65 122.3C209.85 122.3 211.817 121.967 213.55 121.3C215.283 120.633 216.733 119.717 217.9 118.55C219.067 117.383 219.9 116.05 220.4 114.55L220.55 114.1H229.1L229 114.6C228.567 116.733 227.733 118.733 226.5 120.6C225.3 122.467 223.75 124.117 221.85 125.55C219.95 126.95 217.783 128.05 215.35 128.85C212.917 129.617 210.283 130 207.45 130ZM258 130C253.933 130 250.417 129.35 247.45 128.05C244.483 126.75 242.133 124.933 240.4 122.6C238.7 120.267 237.667 117.55 237.3 114.45L237.25 114H245.95L246.05 114.5C246.583 117.1 247.833 119.133 249.8 120.6C251.767 122.033 254.517 122.75 258.05 122.75C260.417 122.75 262.433 122.45 264.1 121.85C265.767 121.217 267.05 120.333 267.95 119.2C268.85 118.033 269.3 116.667 269.3 115.1V115.05C269.3 113.183 268.733 111.683 267.6 110.55C266.467 109.417 264.417 108.483 261.45 107.75L253.2 105.75C249.933 104.95 247.217 103.917 245.05 102.65C242.917 101.35 241.317 99.7667 240.25 97.9C239.183 96.0333 238.65 93.85 238.65 91.35V91.3C238.65 88.3 239.45 85.65 241.05 83.35C242.683 81.05 244.933 79.25 247.8 77.95C250.7 76.65 254.017 76 257.75 76C261.55 76 264.85 76.6833 267.65 78.05C270.483 79.3833 272.7 81.2167 274.3 83.55C275.933 85.85 276.85 88.45 277.05 91.35L277.1 92H268.8L268.75 91.65C268.417 89.1167 267.3 87.0833 265.4 85.55C263.533 84.0167 260.983 83.25 257.75 83.25C255.65 83.25 253.833 83.5667 252.3 84.2C250.767 84.8333 249.583 85.7333 248.75 86.9C247.95 88.0333 247.55 89.3667 247.55 90.9V90.95C247.55 92.1167 247.817 93.1833 248.35 94.15C248.917 95.0833 249.8 95.9 251 96.6C252.2 97.3 253.75 97.8833 255.65 98.35L263.9 100.35C269.167 101.617 272.867 103.367 275 105.6C277.133 107.8 278.2 110.75 278.2 114.45V114.5C278.2 117.533 277.317 120.217 275.55 122.55C273.817 124.883 271.417 126.717 268.35 128.05C265.317 129.35 261.867 130 258 130ZM309.65 130C304.683 130 300.4 128.9 296.8 126.7C293.233 124.5 290.483 121.4 288.55 117.4C286.65 113.367 285.7 108.633 285.7 103.2V103.15C285.7 97.7833 286.667 93.0667 288.6 89C290.533 84.9 293.25 81.7167 296.75 79.45C300.25 77.15 304.367 76 309.1 76C313.833 76 317.9 77.1 321.3 79.3C324.733 81.4667 327.367 84.5167 329.2 88.45C331.033 92.3833 331.95 96.95 331.95 102.15V105.35H290.05V98.55H327.65L323.25 104.85V101.5C323.25 97.4667 322.633 94.1333 321.4 91.5C320.2 88.8667 318.533 86.9167 316.4 85.65C314.267 84.35 311.817 83.7 309.05 83.7C306.283 83.7 303.8 84.3833 301.6 85.75C299.4 87.0833 297.667 89.0833 296.4 91.75C295.133 94.3833 294.5 97.6333 294.5 101.5V104.85C294.5 108.517 295.117 111.65 296.35 114.25C297.617 116.85 299.4 118.85 301.7 120.25C304 121.617 306.717 122.3 309.85 122.3C312.05 122.3 314.017 121.967 315.75 121.3C317.483 120.633 318.933 119.717 320.1 118.55C321.267 117.383 322.1 116.05 322.6 114.55L322.75 114.1H331.3L331.2 114.6C330.767 116.733 329.933 118.733 328.7 120.6C327.5 122.467 325.95 124.117 324.05 125.55C322.15 126.95 319.983 128.05 317.55 128.85C315.117 129.617 312.483 130 309.65 130ZM341.75 129V77H350.45V85.8H350.65C351.517 82.8 353.017 80.4167 355.15 78.65C357.283 76.8833 359.817 76 362.75 76C363.517 76 364.2 76.05 364.8 76.15C365.433 76.2167 365.917 76.2833 366.25 76.35V84.8C365.917 84.6667 365.317 84.55 364.45 84.45C363.617 84.35 362.667 84.3 361.6 84.3C359.367 84.3 357.4 84.8 355.7 85.8C354.033 86.8 352.733 88.25 351.8 90.15C350.9 92.0167 350.45 94.2667 350.45 96.9V129H341.75ZM393.75 130C388.983 130 385.417 128.867 383.05 126.6C380.683 124.333 379.5 120.717 379.5 115.75V84.2H371.9V77H379.5V62.95H388.5V77H398.4V84.2H388.5V115.7C388.5 118.467 389.1 120.35 390.3 121.35C391.5 122.317 393.267 122.8 395.6 122.8C396.133 122.8 396.633 122.783 397.1 122.75C397.6 122.683 398.033 122.633 398.4 122.6V129.65C397.867 129.717 397.167 129.783 396.3 129.85C395.467 129.95 394.617 130 393.75 130Z" fill="#4D4D4D"/>
</svg>
