<svg width="512" height="512" viewBox="0 0 512 512" fill="none" xmlns="http://www.w3.org/2000/svg">
<path d="M0 0H512V14.6716V223.434V512H0V419.211V361.738V249.972V212.25V15.872V0Z" fill="url(#paint0_linear_1951_13877)"/>
<path d="M325.632 228.864L512 316.416V512H0V310.272L325.632 228.864Z" fill="#171E30"/>
<path d="M0 361.739L114.232 329.192C124.928 326.144 138.147 322.025 154.531 317.417C155.043 317.417 164.352 314.88 173.056 312.32C155.948 318.573 131.281 330.746 117.086 342.245C108.532 349.173 100.566 356.898 92.1125 363.979C71.2213 381.477 47.0974 399.872 22.2608 411.118C15.0258 414.395 7.61044 416.966 0 419.212V361.739Z" fill="#464F66"/>
<path d="M0 0H512V14.6716V223.434C508.042 222.268 504.109 220.432 500.271 218.911L478.862 210.434C450.066 199.071 421.616 186.9 393.511 173.921C381.289 168.262 369.256 162.228 357.135 156.361C354.237 154.958 346.55 150.298 344.04 149.968C343.358 149.879 343.047 150.295 342.53 150.676C339.742 153.732 335.226 155.28 331.502 156.843C317.03 162.916 303.178 166.043 287.894 169.128C277.003 171.326 266.147 173.364 255.026 173.874C244.912 174.337 234.777 174.506 224.676 175.212C220.759 175.485 216.711 175.619 212.86 176.392C211.232 176.719 209.64 177.357 208.14 178.059C207.773 178.231 207.94 178.171 207.548 178.264C205.614 178.289 168.58 192.275 162.597 194.442L91.9054 219.536C61.4524 230.231 30.8173 240.376 0 249.972V212.25V15.872V0Z" fill="url(#paint1_linear_1951_13877)"/>
<path d="M-0.00463867 212.25C12.4248 208.177 24.6644 203.133 36.8673 198.413C65.8925 187.159 94.6226 175.196 123.058 162.525C131.302 158.84 139.52 155.096 147.71 151.293C152.799 148.912 157.846 146.306 163.035 144.163C170.513 141.072 177.957 139.879 186.033 140.157C192.474 140.379 198.856 141.656 205.193 142.748C213.852 144.239 222.515 145.795 231.219 147.006C253.047 150.047 275.821 151.388 297.84 152.266C302.593 152.453 307.347 152.467 312.102 152.309C318.245 152.059 324.41 151.596 330.539 151.101C334.017 150.821 338.177 149.718 341.664 149.715C342.239 149.714 343.763 149.795 344.286 150.011C341.497 153.067 335.221 155.28 331.497 156.843C317.026 162.916 303.173 166.043 287.889 169.128C276.998 171.326 266.142 173.364 255.022 173.874C244.908 174.337 234.133 174.966 225.108 175.232C217.637 175.852 212.776 175.73 207.932 178.166C207.462 178.345 206.857 178.247 207.013 183.254C161.397 205.82 46.238 261.789 -0.00390625 283.859L-0.00463867 212.25Z" fill="#363E53"/>
<path d="M0 249.972C30.8173 240.376 61.4524 230.231 91.9054 219.536L162.597 194.442C168.58 192.275 206.003 178.195 207.938 178.171C207.769 178.26 207.614 178.277 207.526 178.544C207.407 178.695 207.572 180.167 208.281 181.026C212.953 186.692 237.275 194.159 244.884 196.906C266.401 204.508 287.695 212.692 308.765 221.458C328.418 229.813 348.648 239.002 365.782 251.895C368.483 253.929 371.06 256.11 373.513 258.437C375.967 260.764 378.281 263.221 380.456 265.81C384.145 270.29 389.056 277.262 388.593 283.382C388.386 286.117 387.172 288.414 385.036 290.128C374.116 298.894 338.356 296.276 324.208 295.8C315.484 295.456 306.757 295.279 298.027 295.269C284.561 295.287 271.135 296.04 257.751 297.527C246.495 298.761 235.275 300.26 224.09 302.026C212.536 303.785 201.126 305.634 189.751 308.365C174.347 312.061 158.967 316.495 143.74 320.893L114.232 329.191L0 361.738V249.972Z" fill="url(#paint2_linear_1951_13877)"/>
<defs>
<linearGradient id="paint0_linear_1951_13877" x1="439.296" y1="192.512" x2="395.264" y2="264.192" gradientUnits="userSpaceOnUse">
<stop stop-color="#171E31"/>
<stop offset="1" stop-color="#1E253A"/>
</linearGradient>
<linearGradient id="paint1_linear_1951_13877" x1="255.847" y1="11.7132" x2="255.899" y2="222.527" gradientUnits="userSpaceOnUse">
<stop stop-color="#172841"/>
<stop offset="1" stop-color="#42536E"/>
</linearGradient>
<linearGradient id="paint2_linear_1951_13877" x1="195.992" y1="340.275" x2="179.267" y2="181.801" gradientUnits="userSpaceOnUse">
<stop stop-color="#30394E"/>
<stop offset="1" stop-color="#485164"/>
</linearGradient>
</defs>
</svg>
