<svg width="24" height="24" viewBox="0 0 24 24" fill="none" xmlns="http://www.w3.org/2000/svg">
<path d="M2 4C2 2.89 2.9 2 4 2H7V4H4V7H2V4ZM22 4V7H20V4H17V2H20C20.5304 2 21.0391 2.21071 21.4142 2.58579C21.7893 2.96086 22 3.46957 22 4ZM20 20V17H22V20C22 21.11 21.1 22 20 22H17V20H20ZM2 20V17H4V20H7V22H4C3.46957 22 2.96086 21.7893 2.58579 21.4142C2.21071 21.0391 2 20.5304 2 20ZM10 2H14V4H10V2ZM10 20H14V22H10V20ZM20 10H22V14H20V10ZM2 10H4V14H2V10Z" fill="black"/>
<path d="M24 4C24 6.20571 22.2057 8 20 8C17.7943 8 16 6.20571 16 4C16 1.79429 17.7943 0 20 0C22.2057 0 24 1.79429 24 4Z" fill="black"/>
</svg>
