<svg width="24" height="24" viewBox="0 0 24 24" fill="none" xmlns="http://www.w3.org/2000/svg">
<path d="M4 3.5H3.5V4V8C3.5 8.13261 3.44732 8.25979 3.35355 8.35355C3.25979 8.44732 3.13261 8.5 3 8.5C2.86739 8.5 2.74021 8.44732 2.64645 8.35355C2.55268 8.25979 2.5 8.13261 2.5 8V3C2.5 2.86739 2.55268 2.74021 2.64645 2.64645C2.74021 2.55268 2.86739 2.5 3 2.5H8C8.13261 2.5 8.25979 2.55268 8.35355 2.64645C8.44732 2.74021 8.5 2.86739 8.5 3C8.5 3.13261 8.44732 3.25979 8.35355 3.35355C8.25979 3.44732 8.13261 3.5 8 3.5H4ZM3.5 20V20.5H4H8C8.13261 20.5 8.25979 20.5527 8.35355 20.6464C8.44732 20.7402 8.5 20.8674 8.5 21C8.5 21.1326 8.44732 21.2598 8.35355 21.3536C8.25979 21.4473 8.13261 21.5 8 21.5H3C2.86739 21.5 2.74021 21.4473 2.64645 21.3536C2.55268 21.2598 2.5 21.1326 2.5 21V16C2.5 15.8674 2.55268 15.7402 2.64645 15.6464C2.74021 15.5527 2.86739 15.5 3 15.5C3.13261 15.5 3.25979 15.5527 3.35355 15.6464C3.44732 15.7402 3.5 15.8674 3.5 16V20ZM20 20.5H20.5V20V16C20.5 15.8674 20.5527 15.7402 20.6464 15.6464C20.7402 15.5527 20.8674 15.5 21 15.5C21.1326 15.5 21.2598 15.5527 21.3536 15.6464C21.4473 15.7402 21.5 15.8674 21.5 16V21C21.5 21.1326 21.4473 21.2598 21.3536 21.3536C21.2598 21.4473 21.1326 21.5 21 21.5H16C15.8674 21.5 15.7402 21.4473 15.6464 21.3536C15.5527 21.2598 15.5 21.1326 15.5 21C15.5 20.8674 15.5527 20.7402 15.6464 20.6464C15.7402 20.5527 15.8674 20.5 16 20.5H20ZM20.5 4V3.5H20H16C15.8674 3.5 15.7402 3.44732 15.6464 3.35355C15.5527 3.25979 15.5 3.13261 15.5 3C15.5 2.86739 15.5527 2.74021 15.6464 2.64645C15.7402 2.55268 15.8674 2.5 16 2.5H21C21.1326 2.5 21.2598 2.55268 21.3536 2.64645C21.4473 2.74021 21.5 2.86739 21.5 3V8C21.5 8.13261 21.4473 8.25979 21.3536 8.35355C21.2598 8.44732 21.1326 8.5 21 8.5C20.8674 8.5 20.7402 8.44732 20.6464 8.35355C20.5527 8.25979 20.5 8.13261 20.5 8V4ZM2 11.5H22C22.1326 11.5 22.2598 11.5527 22.3536 11.6464C22.4473 11.7402 22.5 11.8674 22.5 12C22.5 12.1326 22.4473 12.2598 22.3536 12.3536C22.2598 12.4473 22.1326 12.5 22 12.5H2C1.86739 12.5 1.74021 12.4473 1.64645 12.3536C1.55268 12.2598 1.5 12.1326 1.5 12C1.5 11.8674 1.55268 11.7402 1.64645 11.6464C1.74021 11.5527 1.86739 11.5 2 11.5Z" fill="#141A21" stroke="#141A21"/>
</svg>
