<svg width="25" height="24" viewBox="0 0 25 24" fill="none" xmlns="http://www.w3.org/2000/svg">
<path d="M19.3999 3H5.3999C4.86947 3 4.36076 3.21071 3.98569 3.58579C3.61062 3.96086 3.3999 4.46957 3.3999 5V19C3.3999 20.11 4.2999 21 5.3999 21H19.3999C20.5099 21 21.3999 20.11 21.3999 19V5C21.3999 4.46957 21.1892 3.96086 20.8141 3.58579C20.439 3.21071 19.9303 3 19.3999 3ZM19.3999 19H5.3999V5H19.3999V19ZM16.9899 15.71L12.3999 11.12L7.8099 15.71L6.3999 14.29L12.3999 8.29L18.3999 14.29L16.9899 15.71Z" fill="white"/>
</svg>
