<svg width="16" height="16" viewBox="0 0 16 16" fill="none" xmlns="http://www.w3.org/2000/svg">
<path d="M0.666748 4.00004C0.666748 3.82323 0.736986 3.65366 0.86201 3.52864C0.987034 3.40361 1.1566 3.33337 1.33341 3.33337H8.00008C8.17689 3.33337 8.34646 3.40361 8.47149 3.52864C8.59651 3.65366 8.66675 3.82323 8.66675 4.00004C8.66675 4.17685 8.59651 4.34642 8.47149 4.47145C8.34646 4.59647 8.17689 4.66671 8.00008 4.66671H1.33341C1.1566 4.66671 0.987034 4.59647 0.86201 4.47145C0.736986 4.34642 0.666748 4.17685 0.666748 4.00004ZM14.6667 3.33337H11.3334V2.00004C11.3334 1.82323 11.2632 1.65366 11.1382 1.52864C11.0131 1.40361 10.8436 1.33337 10.6667 1.33337C10.4899 1.33337 10.3204 1.40361 10.1953 1.52864C10.0703 1.65366 10.0001 1.82323 10.0001 2.00004V6.00004C10.0001 6.17685 10.0703 6.34642 10.1953 6.47145C10.3204 6.59647 10.4899 6.66671 10.6667 6.66671C10.8436 6.66671 11.0131 6.59647 11.1382 6.47145C11.2632 6.34642 11.3334 6.17685 11.3334 6.00004V4.66671H14.6667C14.8436 4.66671 15.0131 4.59647 15.1382 4.47145C15.2632 4.34642 15.3334 4.17685 15.3334 4.00004C15.3334 3.82323 15.2632 3.65366 15.1382 3.52864C15.0131 3.40361 14.8436 3.33337 14.6667 3.33337ZM14.6667 11.3334H8.66675V10C8.66675 9.82323 8.59651 9.65366 8.47149 9.52864C8.34646 9.40361 8.17689 9.33337 8.00008 9.33337C7.82327 9.33337 7.6537 9.40361 7.52868 9.52864C7.40365 9.65366 7.33341 9.82323 7.33341 10V14C7.33341 14.1769 7.40365 14.3464 7.52868 14.4714C7.6537 14.5965 7.82327 14.6667 8.00008 14.6667C8.17689 14.6667 8.34646 14.5965 8.47149 14.4714C8.59651 14.3464 8.66675 14.1769 8.66675 14V12.6667H14.6667C14.8436 12.6667 15.0131 12.5965 15.1382 12.4714C15.2632 12.3464 15.3334 12.1769 15.3334 12C15.3334 11.8232 15.2632 11.6537 15.1382 11.5286C15.0131 11.4036 14.8436 11.3334 14.6667 11.3334ZM5.33341 12.6667C5.51023 12.6667 5.67979 12.5965 5.80482 12.4714C5.92984 12.3464 6.00008 12.1769 6.00008 12C6.00008 11.8232 5.92984 11.6537 5.80482 11.5286C5.67979 11.4036 5.51023 11.3334 5.33341 11.3334H1.33341C1.1566 11.3334 0.987034 11.4036 0.86201 11.5286C0.736986 11.6537 0.666748 11.8232 0.666748 12C0.666748 12.1769 0.736986 12.3464 0.86201 12.4714C0.987034 12.5965 1.1566 12.6667 1.33341 12.6667H5.33341Z" fill="#5A6876"/>
</svg>
