<svg width="24" height="24" viewBox="0 0 24 24" fill="none" xmlns="http://www.w3.org/2000/svg">
<path d="M7.50008 14.414V13.2069L6.64653 14.0604L4.35353 16.3534L4.35347 16.3534L4.34744 16.3596C4.30131 16.4074 4.24614 16.4455 4.18514 16.4717C4.12414 16.4979 4.05853 16.5117 3.99214 16.5123C3.92575 16.5128 3.85991 16.5002 3.79846 16.4751C3.73701 16.4499 3.68119 16.4128 3.63424 16.3658C3.58729 16.3189 3.55017 16.2631 3.52503 16.2016C3.49989 16.1402 3.48723 16.0743 3.48781 16.0079C3.48839 15.9416 3.50218 15.8759 3.52839 15.8149C3.55459 15.7539 3.59268 15.6988 3.64044 15.6526L3.64049 15.6527L3.64663 15.6466L7.64658 11.6466C7.6466 11.6466 7.64662 11.6466 7.64663 11.6466C7.74039 11.5529 7.86752 11.5002 8.00008 11.5002C8.13264 11.5002 8.25977 11.5529 8.35353 11.6466C8.35355 11.6466 8.35356 11.6466 8.35358 11.6466L12.3535 15.6466L12.3535 15.6466L12.3597 15.6526C12.4075 15.6988 12.4456 15.7539 12.4718 15.8149C12.498 15.8759 12.5118 15.9416 12.5124 16.0079C12.5129 16.0743 12.5003 16.1402 12.4751 16.2016C12.45 16.2631 12.4129 16.3189 12.3659 16.3658C12.319 16.4128 12.2632 16.4499 12.2017 16.4751C12.1403 16.5002 12.0744 16.5128 12.008 16.5123C11.9416 16.5117 11.876 16.4979 11.815 16.4717C11.754 16.4455 11.6988 16.4074 11.6527 16.3596L11.6528 16.3596L11.6466 16.3534L9.35363 14.0604L8.50008 13.2069V14.414V22C8.50008 22.1326 8.4474 22.2598 8.35363 22.3536C8.25987 22.4473 8.13269 22.5 8.00008 22.5C7.86747 22.5 7.7403 22.4473 7.64653 22.3536C7.55276 22.2598 7.50008 22.1326 7.50008 22L7.50008 14.414ZM14.6465 9.93955L15.5001 10.7931V9.586L15.5001 2C15.5001 1.86739 15.5528 1.74021 15.6465 1.64645C15.7403 1.55268 15.8675 1.5 16.0001 1.5C16.1327 1.5 16.2599 1.55268 16.3536 1.64645C16.4474 1.74021 16.5001 1.86739 16.5001 2V9.586V10.7931L17.3536 9.93955L19.643 7.65015C19.7371 7.56065 19.8622 7.51118 19.9921 7.51231C20.1232 7.51345 20.2486 7.56603 20.3413 7.65874C20.4341 7.75144 20.4866 7.87685 20.4878 8.00794C20.4889 8.13783 20.4394 8.26301 20.35 8.35702L16.3536 12.3534C16.3536 12.3534 16.3535 12.3534 16.3535 12.3534C16.2598 12.4471 16.1326 12.4998 16.0001 12.4998C15.8675 12.4998 15.7404 12.4471 15.6466 12.3534C15.6466 12.3534 15.6466 12.3534 15.6466 12.3534L11.6502 8.35703C11.5607 8.26301 11.5113 8.13783 11.5124 8.00794C11.5135 7.87685 11.5661 7.75144 11.6588 7.65874C11.7515 7.56603 11.8769 7.51345 12.008 7.51231C12.1379 7.51118 12.2631 7.56064 12.3571 7.65013L14.6465 9.93955Z" fill="#5A6876" stroke="#5A6876"/>
</svg>
