<svg width="27" height="27" viewBox="0 0 27 27" fill="none" xmlns="http://www.w3.org/2000/svg">
<g filter="url(#filter0_d_1592_31414)">
<path d="M20.6 3H6.59998C6.06954 3 5.56083 3.21071 5.18576 3.58579C4.81069 3.96086 4.59998 4.46957 4.59998 5V19C4.59998 20.11 5.49998 21 6.59998 21H20.6C21.71 21 22.6 20.11 22.6 19V5C22.6 4.46957 22.3893 3.96086 22.0142 3.58579C21.6391 3.21071 21.1304 3 20.6 3ZM20.6 19H6.59998V5H20.6V19Z" fill="white"/>
<path d="M11.6061 17.5C11.4735 17.5 11.3463 17.4473 11.2526 17.3536C11.1588 17.2598 11.1061 17.1326 11.1061 17V13.207L9.95962 14.3535C9.9135 14.4013 9.85832 14.4393 9.79732 14.4656C9.73632 14.4918 9.67071 14.5055 9.60432 14.5061C9.53793 14.5067 9.47209 14.4941 9.41064 14.4689C9.34919 14.4438 9.29337 14.4066 9.24642 14.3597C9.19948 14.3128 9.16235 14.2569 9.13721 14.1955C9.11207 14.134 9.09942 14.0682 9.09999 14.0018C9.10057 13.9354 9.11436 13.8698 9.14057 13.8088C9.16677 13.7478 9.20486 13.6926 9.25262 13.6465L11.2526 11.6465C11.3464 11.5528 11.4735 11.5001 11.6061 11.5001C11.7387 11.5001 11.8659 11.5528 11.9596 11.6465L13.9596 13.6465C14.0074 13.6926 14.0455 13.7478 14.0717 13.8088C14.0979 13.8698 14.1117 13.9354 14.1122 14.0018C14.1128 14.0682 14.1002 14.134 14.075 14.1955C14.0499 14.2569 14.0128 14.3128 13.9658 14.3597C13.9189 14.4066 13.863 14.4438 13.8016 14.4689C13.7401 14.4941 13.6743 14.5067 13.6079 14.5061C13.5415 14.5055 13.4759 14.4918 13.4149 14.4656C13.3539 14.4393 13.2987 14.4013 13.2526 14.3535L12.1061 13.207V17C12.1061 17.1326 12.0534 17.2598 11.9597 17.3536C11.8659 17.4473 11.7387 17.5 11.6061 17.5V17.5ZM15.1061 7V10.793L13.9596 9.6465C13.8653 9.55542 13.739 9.50502 13.6079 9.50616C13.4768 9.5073 13.3514 9.55989 13.2587 9.65259C13.166 9.74529 13.1134 9.8707 13.1123 10.0018C13.1111 10.1329 13.1615 10.2592 13.2526 10.3535L15.2526 12.3535C15.3464 12.4472 15.4735 12.4999 15.6061 12.4999C15.7387 12.4999 15.8659 12.4472 15.9596 12.3535L17.9596 10.3535C18.0507 10.2592 18.1011 10.1329 18.1 10.0018C18.0988 9.8707 18.0462 9.74529 17.9535 9.65259C17.8608 9.55989 17.7354 9.5073 17.6043 9.50616C17.4732 9.50502 17.3469 9.55542 17.2526 9.6465L16.1061 10.793V7C16.1061 6.86739 16.0534 6.74021 15.9597 6.64645C15.8659 6.55268 15.7387 6.5 15.6061 6.5C15.4735 6.5 15.3463 6.55268 15.2526 6.64645C15.1588 6.74021 15.1061 6.86739 15.1061 7Z" fill="white" stroke="white" stroke-width="0.5"/>
</g>
<defs>
<filter id="filter0_d_1592_31414" x="0.599976" y="1" width="26" height="26" filterUnits="userSpaceOnUse" color-interpolation-filters="sRGB">
<feFlood flood-opacity="0" result="BackgroundImageFix"/>
<feColorMatrix in="SourceAlpha" type="matrix" values="0 0 0 0 0 0 0 0 0 0 0 0 0 0 0 0 0 0 127 0" result="hardAlpha"/>
<feOffset dy="2"/>
<feGaussianBlur stdDeviation="2"/>
<feComposite in2="hardAlpha" operator="out"/>
<feColorMatrix type="matrix" values="0 0 0 0 0 0 0 0 0 0 0 0 0 0 0 0 0 0 0.25 0"/>
<feBlend mode="normal" in2="BackgroundImageFix" result="effect1_dropShadow_1592_31414"/>
<feBlend mode="normal" in="SourceGraphic" in2="effect1_dropShadow_1592_31414" result="shape"/>
</filter>
</defs>
</svg>
