<svg width="512" height="512" viewBox="0 0 512 512" fill="none" xmlns="http://www.w3.org/2000/svg">
<g clip-path="url(#clip0_2013_8981)">
<rect width="512" height="512" fill="url(#paint0_linear_2013_8981)"/>
<path d="M325.632 228.864L512 316.416V512H0V310.272L325.632 228.864Z" fill="#E5B57D"/>
<path d="M0 361.739L114.232 329.192C124.928 326.144 138.147 322.025 154.531 317.417C155.043 317.417 164.352 314.88 173.056 312.32C155.948 318.573 131.281 330.746 117.086 342.245C108.532 349.173 100.566 356.898 92.1125 363.979C71.2212 381.477 47.0974 399.872 22.2608 411.118C15.0258 414.395 7.61044 416.966 0 419.212V361.739Z" fill="#A7734E"/>
<path d="M-0.00488281 224C48.866 201.621 115.871 168.118 147.71 151.293C152.798 148.912 157.846 146.306 163.034 144.163C170.513 141.072 177.957 139.879 186.032 140.157C192.473 140.379 198.856 141.656 205.192 142.748C213.851 144.239 222.514 145.795 231.218 147.006C253.047 150.047 275.821 151.388 297.84 152.266C302.593 152.453 307.347 152.467 312.102 152.309C318.245 152.059 324.409 151.596 330.539 151.101C334.017 150.821 338.177 149.718 341.663 149.715C342.239 149.714 343.762 149.795 344.286 150.011C341.497 153.067 335.221 155.28 331.497 156.843C317.025 162.916 303.173 166.043 287.888 169.128C276.998 171.326 266.142 173.364 255.021 173.874C244.907 174.337 234.132 174.966 225.108 175.232C217.637 175.852 212.776 175.73 207.932 178.166C207.461 178.345 206.857 178.247 207.013 183.254C161.396 205.82 46.2377 261.789 -0.00415039 283.859L-0.00488281 224Z" fill="url(#paint1_linear_2013_8981)"/>
<path d="M0 244.944C36.4808 233.448 161.212 193.393 207.548 178.264C207.537 178.34 207.524 178.415 207.514 178.49C207.361 179.598 207.572 180.167 208.281 181.026C212.953 186.692 237.275 194.159 244.884 196.906C266.401 204.508 287.695 212.692 308.765 221.459C328.418 229.813 348.648 239.002 365.782 251.895C368.483 253.929 371.06 256.11 373.513 258.437C375.967 260.764 378.281 263.221 380.456 265.81C384.145 270.29 389.057 277.262 388.593 283.382C388.386 286.117 387.172 288.414 385.036 290.128C374.116 298.894 338.356 296.276 324.208 295.8C315.484 295.456 306.757 295.279 298.027 295.269C284.561 295.287 271.135 296.04 257.751 297.527C246.495 298.761 235.275 300.26 224.09 302.026C212.536 303.785 201.126 305.634 189.751 308.365C174.347 312.061 158.967 316.496 143.74 320.893L114.232 329.192L0 361.738V244.944Z" fill="url(#paint2_linear_2013_8981)"/>
<path d="M511.993 223.999C507.939 222.806 504.21 220.472 500.271 218.911L478.862 210.434C450.066 199.071 421.616 186.9 393.511 173.921C385.074 170.014 376.726 165.929 368.378 161.843C364.633 160.01 360.889 158.178 357.135 156.361C356.275 155.944 354.991 155.24 353.546 154.447C350.273 152.651 346.173 150.402 344.281 150.009L344.286 150.011C341.902 152.624 336.967 154.621 333.259 156.122L333.255 156.123C333.131 156.174 333.007 156.224 332.886 156.273C332.416 156.465 331.953 156.654 331.502 156.843C317.03 162.916 303.178 166.043 287.894 169.128C277.003 171.327 266.147 173.364 255.026 173.874C254.89 173.881 254.753 173.887 254.617 173.893C251.452 174.039 248.225 174.2 245.011 174.361L245.009 174.361C238.072 174.709 231.192 175.053 225.108 175.232C223.766 175.343 222.508 175.431 221.319 175.514L221.317 175.514C216.366 175.858 212.614 176.118 208.977 177.68C208.788 177.763 208.6 177.847 208.414 177.933C208.253 178.008 208.092 178.086 207.932 178.167C207.915 178.173 207.898 178.179 207.882 178.185L207.851 178.195C207.746 178.231 207.637 178.268 207.533 178.362C207.526 178.405 207.519 178.447 207.514 178.49C207.361 179.598 207.572 180.167 208.281 181.026C212.182 185.757 229.783 191.743 239.916 195.19C241.918 195.871 243.629 196.453 244.885 196.906C266.402 204.508 287.695 212.692 308.765 221.459C314.364 223.839 320.009 226.286 325.617 228.868L325.632 228.864L327.318 229.656C328.011 229.979 328.704 230.305 329.396 230.632L512 316.416L511.993 223.999Z" fill="url(#paint3_linear_2013_8981)"/>
</g>
<path d="M0 191.147C0 124.239 0 90.7853 13.0211 65.2299C24.4748 42.7508 42.7508 24.4748 65.2299 13.0211C90.7853 0 124.239 0 191.147 0H320.853C387.761 0 421.215 0 446.77 13.0211C469.249 24.4748 487.525 42.7508 498.979 65.2299C512 90.7853 512 124.239 512 191.147V320.853C512 387.761 512 421.215 498.979 446.77C487.525 469.249 469.249 487.525 446.77 498.979C421.215 512 387.761 512 320.853 512H191.147C124.239 512 90.7853 512 65.2299 498.979C42.7508 487.525 24.4748 469.249 13.0211 446.77C0 421.215 0 387.761 0 320.853V191.147Z" stroke="white"/>
<defs>
<linearGradient id="paint0_linear_2013_8981" x1="255.847" y1="11.7139" x2="255.899" y2="222.541" gradientUnits="userSpaceOnUse">
<stop stop-color="#AACFFF"/>
<stop offset="1" stop-color="#FBFBFB"/>
</linearGradient>
<linearGradient id="paint1_linear_2013_8981" x1="256.794" y1="149.867" x2="0.00100873" y2="244.167" gradientUnits="userSpaceOnUse">
<stop stop-color="#8D5E44"/>
<stop offset="1" stop-color="#DDAB77"/>
</linearGradient>
<linearGradient id="paint2_linear_2013_8981" x1="177.512" y1="395.755" x2="247.944" y2="127.618" gradientUnits="userSpaceOnUse">
<stop stop-color="#D69462"/>
<stop offset="1" stop-color="#503C30"/>
</linearGradient>
<linearGradient id="paint3_linear_2013_8981" x1="426.991" y1="194.003" x2="393.474" y2="267.378" gradientUnits="userSpaceOnUse">
<stop stop-color="#E5B57D"/>
<stop offset="1" stop-color="#CB9D6C"/>
</linearGradient>
<clipPath id="clip0_2013_8981">
<path d="M0 191.147C0 124.239 0 90.7853 13.0211 65.2299C24.4748 42.7508 42.7508 24.4748 65.2299 13.0211C90.7853 0 124.239 0 191.147 0H320.853C387.761 0 421.215 0 446.77 13.0211C469.249 24.4748 487.525 42.7508 498.979 65.2299C512 90.7853 512 124.239 512 191.147V320.853C512 387.761 512 421.215 498.979 446.77C487.525 469.249 469.249 487.525 446.77 498.979C421.215 512 387.761 512 320.853 512H191.147C124.239 512 90.7853 512 65.2299 498.979C42.7508 487.525 24.4748 469.249 13.0211 446.77C0 421.215 0 387.761 0 320.853V191.147Z" fill="white"/>
</clipPath>
</defs>
</svg>
