<svg width="512" height="512" viewBox="0 0 512 512" fill="none" xmlns="http://www.w3.org/2000/svg">
<g clip-path="url(#clip0_2013_9060)">
<g clip-path="url(#clip1_2013_9060)">
<rect width="510" height="510" transform="translate(1 1)" fill="url(#paint0_linear_2013_9060)"/>
<path d="M325.36 228.97L511 316.18V511H1V310.06L325.36 228.97Z" fill="#171E30"/>
<path d="M1 361.326L114.786 328.906C125.44 325.87 138.608 321.767 154.928 317.177C155.438 317.177 164.71 314.65 173.38 312.1C156.339 318.328 131.768 330.454 117.629 341.908C109.108 348.809 101.173 356.504 92.7527 363.557C71.943 380.987 47.9135 399.31 23.1739 410.512C15.9671 413.776 8.58071 416.337 1 418.574V361.326Z" fill="#464F66"/>
<path d="M510.993 224.124C506.955 222.935 503.24 220.611 499.317 219.056L477.992 210.612C449.308 199.294 420.969 187.17 392.974 174.242C384.569 170.35 376.255 166.281 367.939 162.211C364.209 160.385 360.479 158.56 356.74 156.75C355.883 156.335 354.604 155.633 353.165 154.844C349.905 153.055 345.82 150.814 343.936 150.423L343.941 150.425C341.566 153.028 336.651 155.017 332.957 156.512L332.953 156.514C332.829 156.564 332.706 156.614 332.585 156.663C332.117 156.854 331.656 157.042 331.207 157.231C316.792 163.28 302.993 166.394 287.769 169.467C276.921 171.657 266.107 173.687 255.03 174.195C254.894 174.201 254.758 174.208 254.622 174.214C251.469 174.359 248.255 174.52 245.054 174.68L245.052 174.68C238.142 175.026 231.289 175.369 225.228 175.548C223.891 175.659 222.638 175.746 221.454 175.828L221.453 175.828C216.52 176.171 212.784 176.431 209.161 177.986C208.972 178.068 208.785 178.152 208.599 178.238C208.439 178.313 208.279 178.39 208.119 178.471C208.103 178.477 208.086 178.483 208.069 178.489L208.039 178.499C207.934 178.535 207.826 178.572 207.722 178.665C207.715 178.708 207.709 178.75 207.703 178.793C207.551 179.897 207.761 180.463 208.467 181.319C212.353 186.031 229.885 191.994 239.978 195.427C241.973 196.106 243.677 196.685 244.928 197.137C266.361 204.709 287.571 212.862 308.558 221.593C314.135 223.964 319.759 226.402 325.344 228.974L325.36 228.97L327.039 229.759C327.73 230.081 328.42 230.405 329.109 230.732L511 316.18L510.993 224.124Z" fill="url(#paint1_linear_2013_9060)"/>
<path d="M0.995117 224.125C49.6751 201.833 116.419 168.462 148.133 151.702C153.202 149.33 158.229 146.734 163.398 144.6C170.847 141.521 178.262 140.333 186.306 140.609C192.721 140.831 199.079 142.103 205.391 143.19C214.016 144.675 222.645 146.225 231.315 147.432C253.058 150.461 275.744 151.797 297.676 152.671C302.411 152.857 307.147 152.871 311.883 152.714C318.002 152.465 324.142 152.004 330.248 151.511C333.712 151.232 337.856 150.134 341.329 150.13C341.902 150.129 343.419 150.21 343.941 150.425C341.163 153.469 334.911 155.674 331.202 157.23C316.787 163.28 302.988 166.394 287.764 169.467C276.916 171.657 266.102 173.687 255.025 174.195C244.951 174.656 234.218 175.283 225.228 175.547C217.787 176.165 212.945 176.043 208.119 178.47C207.651 178.648 207.049 178.551 207.204 183.538C161.766 206.016 47.0571 261.767 0.995847 283.75L0.995117 224.125Z" fill="url(#paint2_linear_2013_9060)"/>
<path d="M1 244.988C37.3383 233.537 161.582 193.638 207.738 178.568C207.726 178.643 207.713 178.718 207.703 178.793C207.551 179.897 207.761 180.463 208.467 181.319C213.121 186.962 237.348 194.4 244.928 197.137C266.361 204.709 287.571 212.862 308.559 221.594C328.135 229.916 348.287 239.068 365.353 251.911C368.043 253.937 370.61 256.11 373.054 258.428C375.498 260.745 377.803 263.193 379.97 265.772C383.645 270.234 388.537 277.179 388.075 283.275C387.869 285.999 386.66 288.287 384.532 289.995C373.655 298.727 338.035 296.119 323.941 295.644C315.251 295.302 306.559 295.126 297.863 295.116C284.449 295.134 271.076 295.884 257.744 297.365C246.532 298.594 235.356 300.088 224.215 301.846C212.706 303.598 201.34 305.441 190.01 308.161C174.666 311.842 159.346 316.259 144.178 320.64L114.786 328.906L1 361.325V244.988Z" fill="url(#paint3_linear_2013_9060)"/>
<path d="M1 244.988C37.3383 233.537 161.582 193.638 207.738 178.568C207.726 178.643 207.713 178.718 207.703 178.793C207.551 179.897 207.761 180.463 208.467 181.319C213.121 186.962 237.348 194.4 244.928 197.137C266.361 204.709 287.571 212.862 308.559 221.594C328.135 229.916 348.287 239.068 365.353 251.911C368.043 253.937 370.61 256.11 373.054 258.428C375.498 260.745 377.803 263.193 379.97 265.772C383.645 270.234 388.537 277.179 388.075 283.275C387.869 285.999 386.66 288.287 384.532 289.995C373.655 298.727 338.035 296.119 323.941 295.644C315.251 295.302 306.559 295.126 297.863 295.116C284.449 295.134 271.076 295.884 257.744 297.365C246.532 298.594 235.356 300.088 224.215 301.846C212.706 303.598 201.34 305.441 190.01 308.161C174.666 311.842 159.346 316.259 144.178 320.64L114.786 328.906L1 361.325V244.988Z" fill="url(#paint4_linear_2013_9060)"/>
</g>
</g>
<defs>
<linearGradient id="paint0_linear_2013_9060" x1="254.848" y1="23.8976" x2="255.064" y2="454.006" gradientUnits="userSpaceOnUse">
<stop stop-color="#172841"/>
<stop offset="1" stop-color="#42536E"/>
</linearGradient>
<linearGradient id="paint1_linear_2013_9060" x1="443.99" y1="206.783" x2="444.411" y2="267.987" gradientUnits="userSpaceOnUse">
<stop stop-color="#171E31"/>
<stop offset="1" stop-color="#1E253A"/>
</linearGradient>
<linearGradient id="paint2_linear_2013_9060" x1="256.791" y1="150.282" x2="1.00099" y2="244.214" gradientUnits="userSpaceOnUse">
<stop stop-color="#414A5E"/>
<stop offset="1" stop-color="#363E53"/>
</linearGradient>
<linearGradient id="paint3_linear_2013_9060" x1="177.818" y1="395.209" x2="247.975" y2="128.12" gradientUnits="userSpaceOnUse">
<stop stop-color="#D69462"/>
<stop offset="1" stop-color="#503C30"/>
</linearGradient>
<linearGradient id="paint4_linear_2013_9060" x1="196.227" y1="339.956" x2="179.583" y2="182.18" gradientUnits="userSpaceOnUse">
<stop stop-color="#30394E"/>
<stop offset="1" stop-color="#485164"/>
</linearGradient>
<clipPath id="clip0_2013_9060">
<rect width="512" height="512" rx="120" fill="white"/>
</clipPath>
<clipPath id="clip1_2013_9060">
<rect x="1" y="1" width="510" height="510" rx="120" fill="white"/>
</clipPath>
</defs>
</svg>
