<svg width="512" height="413" viewBox="0 0 512 413" fill="none" xmlns="http://www.w3.org/2000/svg">
<g clip-path="url(#clip0_2013_9060)">
<g clip-path="url(#clip1_2013_9060)">
<rect width="411.366" height="411.366" transform="translate(50.8066 1.8064)" fill="url(#paint0_linear_2013_9060)"/>
<path d="M312.435 185.687L462.173 256.031V413.172H50.8066V251.094L312.435 185.687Z" fill="#171E30"/>
<path d="M50.8066 292.445L142.587 266.295C151.18 263.847 161.801 260.537 174.965 256.835C175.376 256.835 182.855 254.797 189.848 252.74C176.103 257.763 156.284 267.544 144.879 276.783C138.006 282.349 131.606 288.556 124.814 294.245C108.029 308.304 88.647 323.084 68.6921 332.119C62.8791 334.752 56.9212 336.817 50.8066 338.622V292.445Z" fill="#464F66"/>
<path d="M462.167 181.412C458.91 180.453 455.914 178.579 452.749 177.324L435.548 170.514C412.412 161.384 389.553 151.605 366.973 141.178C360.194 138.038 353.487 134.756 346.779 131.473C343.771 130.001 340.762 128.528 337.747 127.068C337.055 126.734 336.024 126.168 334.863 125.531C332.233 124.088 328.939 122.281 327.419 121.965L327.423 121.967C325.507 124.066 321.542 125.671 318.563 126.877L318.56 126.878C318.46 126.918 318.361 126.958 318.263 126.998C317.886 127.152 317.514 127.304 317.151 127.456C305.524 132.336 294.395 134.847 282.114 137.326C273.365 139.093 264.642 140.73 255.707 141.14C255.598 141.145 255.488 141.15 255.378 141.155C252.835 141.272 250.243 141.402 247.66 141.531L247.659 141.531C242.086 141.81 236.558 142.087 231.669 142.231C230.591 142.32 229.58 142.39 228.625 142.457L228.624 142.457C224.645 142.733 221.632 142.943 218.709 144.197C218.557 144.264 218.406 144.332 218.256 144.4C218.127 144.461 217.998 144.523 217.869 144.588C217.856 144.593 217.842 144.598 217.829 144.603L217.804 144.611C217.72 144.64 217.632 144.67 217.549 144.745C217.543 144.78 217.538 144.814 217.533 144.849C217.411 145.739 217.58 146.195 218.149 146.886C221.284 150.687 235.426 155.497 243.567 158.266C245.175 158.813 246.55 159.28 247.559 159.645C264.847 165.752 281.955 172.328 298.883 179.371C303.382 181.283 307.918 183.25 312.423 185.324L312.435 185.321L313.79 185.958C314.347 186.217 314.904 186.479 315.46 186.742L462.173 255.665L462.167 181.412Z" fill="url(#paint1_linear_2013_9060)"/>
<path d="M50.8032 181.413C90.0685 163.433 143.904 136.515 169.485 122.997C173.573 121.084 177.628 118.99 181.797 117.268C187.805 114.785 193.787 113.826 200.275 114.049C205.45 114.228 210.578 115.254 215.669 116.131C222.626 117.329 229.586 118.579 236.579 119.553C254.117 121.995 272.415 123.073 290.106 123.778C293.925 123.928 297.745 123.94 301.565 123.813C306.501 123.612 311.454 123.24 316.379 122.843C319.172 122.617 322.515 121.732 325.316 121.729C325.779 121.728 327.003 121.793 327.423 121.967C325.183 124.422 320.14 126.2 317.148 127.456C305.521 132.335 294.391 134.847 282.111 137.326C273.361 139.092 264.639 140.73 255.704 141.139C247.578 141.511 238.921 142.017 231.67 142.23C225.667 142.729 221.762 142.63 217.87 144.588C217.492 144.731 217.006 144.653 217.132 148.675C180.481 166.806 87.9568 211.775 50.8038 229.507L50.8032 181.413Z" fill="url(#paint2_linear_2013_9060)"/>
<path d="M50.8066 198.241C80.1171 189.004 180.332 156.822 217.561 144.667C217.552 144.727 217.542 144.787 217.533 144.848C217.411 145.739 217.58 146.195 218.15 146.885C221.904 151.438 241.445 157.437 247.559 159.644C264.847 165.752 281.955 172.328 298.883 179.371C314.674 186.084 330.928 193.466 344.694 203.825C346.864 205.46 348.934 207.212 350.906 209.081C352.877 210.951 354.736 212.925 356.484 215.005C359.448 218.605 363.394 224.207 363.021 229.123C362.855 231.321 361.88 233.166 360.164 234.543C351.39 241.587 322.659 239.483 311.291 239.101C304.282 238.824 297.27 238.682 290.256 238.674C279.437 238.689 268.65 239.293 257.897 240.488C248.853 241.48 239.838 242.684 230.852 244.103C221.569 245.516 212.401 247.002 203.262 249.196C190.886 252.165 178.529 255.728 166.294 259.262L142.587 265.929L50.8066 292.079V198.241Z" fill="url(#paint3_linear_2013_9060)"/>
<path d="M50.8066 198.241C80.1171 189.004 180.332 156.822 217.561 144.667C217.552 144.727 217.542 144.787 217.533 144.848C217.411 145.739 217.58 146.195 218.15 146.885C221.904 151.438 241.445 157.437 247.559 159.644C264.847 165.752 281.955 172.328 298.883 179.371C314.674 186.084 330.928 193.466 344.694 203.825C346.864 205.46 348.934 207.212 350.906 209.081C352.877 210.951 354.736 212.925 356.484 215.005C359.448 218.605 363.394 224.207 363.021 229.123C362.855 231.321 361.88 233.166 360.164 234.543C351.39 241.587 322.659 239.483 311.291 239.101C304.282 238.824 297.27 238.682 290.256 238.674C279.437 238.689 268.65 239.293 257.897 240.488C248.853 241.48 239.838 242.684 230.852 244.103C221.569 245.516 212.401 247.002 203.262 249.196C190.886 252.165 178.529 255.728 166.294 259.262L142.587 265.929L50.8066 292.079V198.241Z" fill="url(#paint4_linear_2013_9060)"/>
</g>
</g>
<defs>
<linearGradient id="paint0_linear_2013_9060" x1="205.56" y1="19.2758" x2="205.735" y2="366.201" gradientUnits="userSpaceOnUse">
<stop stop-color="#172841"/>
<stop offset="1" stop-color="#42536E"/>
</linearGradient>
<linearGradient id="paint1_linear_2013_9060" x1="408.122" y1="167.425" x2="408.462" y2="216.793" gradientUnits="userSpaceOnUse">
<stop stop-color="#171E31"/>
<stop offset="1" stop-color="#1E253A"/>
</linearGradient>
<linearGradient id="paint2_linear_2013_9060" x1="257.128" y1="121.851" x2="50.808" y2="197.617" gradientUnits="userSpaceOnUse">
<stop stop-color="#414A5E"/>
<stop offset="1" stop-color="#363E53"/>
</linearGradient>
<linearGradient id="paint3_linear_2013_9060" x1="193.428" y1="319.409" x2="250.017" y2="103.975" gradientUnits="userSpaceOnUse">
<stop stop-color="#D69462"/>
<stop offset="1" stop-color="#503C30"/>
</linearGradient>
<linearGradient id="paint4_linear_2013_9060" x1="208.277" y1="274.843" x2="194.852" y2="147.58" gradientUnits="userSpaceOnUse">
<stop stop-color="#30394E"/>
<stop offset="1" stop-color="#485164"/>
</linearGradient>
<clipPath id="clip0_2013_9060">
<rect width="512" height="413" rx="96.792" fill="white"/>
</clipPath>
<clipPath id="clip1_2013_9060">
<rect x="50.8066" y="1.8064" width="411.366" height="411.366" rx="96.792" fill="white"/>
</clipPath>
</defs>
</svg>
