<svg width="512" height="414" viewBox="0 0 512 414" fill="none" xmlns="http://www.w3.org/2000/svg">
<g clip-path="url(#clip0_2322_3995)">
<rect width="413" height="413" transform="translate(49.5 0.5)" fill="url(#paint0_linear_2322_3995)"/>
<path d="M312.168 185.123L462.5 255.742V413.5H49.5V250.786L312.168 185.123Z" fill="#E5B57D"/>
<path d="M49.5 292.299L141.644 266.047C150.272 263.589 160.935 260.266 174.151 256.55C174.564 256.55 182.073 254.503 189.094 252.438C175.294 257.482 155.397 267.301 143.946 276.575C137.046 282.164 130.62 288.395 123.802 294.106C106.95 308.22 87.4907 323.058 67.4565 332.129C61.6204 334.772 55.6389 336.846 49.5 338.657V292.299Z" fill="#A7734E"/>
<path d="M49.4961 181.199C88.9173 163.148 142.967 136.125 168.649 122.554C172.753 120.633 176.825 118.531 181.01 116.803C187.042 114.31 193.047 113.348 199.561 113.571C204.757 113.751 209.905 114.781 215.017 115.661C222.001 116.864 228.989 118.119 236.01 119.096C253.618 121.549 271.989 122.631 289.75 123.338C293.584 123.489 297.419 123.501 301.254 123.373C306.209 123.172 311.182 122.798 316.126 122.399C318.931 122.173 322.287 121.284 325.1 121.281C325.564 121.28 326.793 121.346 327.215 121.52C324.966 123.985 319.903 125.77 316.899 127.03C305.226 131.929 294.051 134.451 281.723 136.939C272.938 138.713 264.181 140.356 255.211 140.768C247.052 141.141 238.361 141.649 231.081 141.863C225.055 142.363 221.134 142.264 217.226 144.23C216.847 144.374 216.359 144.295 216.485 148.333C179.689 166.535 86.7972 211.68 49.4967 229.482L49.4961 181.199Z" fill="url(#paint1_linear_2322_3995)"/>
<path d="M49.5 198.093C78.9269 188.82 179.54 156.512 216.917 144.309C216.908 144.37 216.897 144.43 216.889 144.491C216.766 145.385 216.936 145.843 217.508 146.536C221.277 151.106 240.896 157.129 247.034 159.345C264.39 165.477 281.566 172.078 298.562 179.149C314.416 185.888 330.734 193.299 344.555 203.699C346.733 205.34 348.812 207.099 350.791 208.976C352.77 210.853 354.637 212.835 356.391 214.923C359.367 218.537 363.329 224.161 362.955 229.097C362.788 231.303 361.809 233.155 360.086 234.538C351.277 241.609 322.432 239.497 311.019 239.113C303.982 238.835 296.943 238.693 289.901 238.685C279.038 238.699 268.209 239.306 257.412 240.506C248.333 241.501 239.282 242.711 230.26 244.135C220.94 245.554 211.736 247.045 202.561 249.248C190.136 252.229 177.729 255.806 165.446 259.353L141.644 266.047L49.5 292.299V198.093Z" fill="url(#paint2_linear_2322_3995)"/>
<path d="M462.495 181.198C459.225 180.236 456.217 178.354 453.039 177.094L435.77 170.257C412.542 161.091 389.593 151.274 366.922 140.806C360.117 137.654 353.383 134.359 346.649 131.063C343.628 129.585 340.608 128.107 337.58 126.641C336.886 126.305 335.851 125.737 334.685 125.098C332.045 123.649 328.737 121.835 327.211 121.518L327.215 121.52C325.292 123.627 321.312 125.238 318.32 126.449L318.318 126.45C318.217 126.49 318.118 126.531 318.02 126.57C317.64 126.725 317.267 126.878 316.903 127.03C305.23 131.929 294.056 134.451 281.727 136.939C272.943 138.713 264.185 140.356 255.215 140.768C255.105 140.773 254.995 140.778 254.885 140.783C252.332 140.9 249.729 141.031 247.136 141.16L247.135 141.16C241.539 141.441 235.99 141.718 231.082 141.863C229.999 141.953 228.984 142.023 228.025 142.09L228.024 142.09C224.03 142.367 221.004 142.578 218.07 143.837C217.917 143.904 217.766 143.972 217.615 144.041C217.486 144.102 217.356 144.165 217.227 144.23C217.213 144.235 217.2 144.24 217.186 144.244L217.161 144.253C217.077 144.282 216.989 144.312 216.905 144.387C216.9 144.422 216.894 144.456 216.889 144.491C216.766 145.385 216.936 145.843 217.508 146.536C220.655 150.352 234.853 155.181 243.026 157.961C244.641 158.51 246.021 158.979 247.034 159.345C264.391 165.477 281.567 172.078 298.563 179.149C303.079 181.069 307.633 183.043 312.156 185.126L312.168 185.122L313.528 185.761C314.088 186.022 314.647 186.284 315.205 186.549L462.5 255.742L462.495 181.198Z" fill="url(#paint3_linear_2322_3995)"/>
</g>
<path d="M49.5 154.679C49.5 100.711 49.5 73.7274 60.0028 53.1145C69.2413 34.9828 83.9828 20.2413 102.114 11.0028C122.727 0.5 149.711 0.5 203.679 0.5H308.321C362.289 0.5 389.273 0.5 409.886 11.0028C428.017 20.2413 442.759 34.9828 451.997 53.1145C462.5 73.7274 462.5 100.711 462.5 154.679V259.321C462.5 313.289 462.5 340.273 451.997 360.886C442.759 379.017 428.017 393.759 409.886 402.997C389.273 413.5 362.289 413.5 308.321 413.5H203.679C149.711 413.5 122.727 413.5 102.114 402.997C83.9828 393.759 69.2413 379.017 60.0028 360.886C49.5 340.273 49.5 313.289 49.5 259.321V154.679Z" stroke="white"/>
<defs>
<linearGradient id="paint0_linear_2322_3995" x1="206.377" y1="9.44892" x2="206.418" y2="179.511" gradientUnits="userSpaceOnUse">
<stop stop-color="#AACFFF"/>
<stop offset="1" stop-color="#FBFBFB"/>
</linearGradient>
<linearGradient id="paint1_linear_2322_3995" x1="256.64" y1="121.404" x2="49.5033" y2="197.473" gradientUnits="userSpaceOnUse">
<stop stop-color="#8D5E44"/>
<stop offset="1" stop-color="#DDAB77"/>
</linearGradient>
<linearGradient id="paint2_linear_2322_3995" x1="192.688" y1="319.736" x2="249.496" y2="103.456" gradientUnits="userSpaceOnUse">
<stop stop-color="#D69462"/>
<stop offset="1" stop-color="#503C30"/>
</linearGradient>
<linearGradient id="paint3_linear_2322_3995" x1="393.929" y1="157.004" x2="366.895" y2="216.189" gradientUnits="userSpaceOnUse">
<stop stop-color="#E5B57D"/>
<stop offset="1" stop-color="#CB9D6C"/>
</linearGradient>
<clipPath id="clip0_2322_3995">
<path d="M49.5 154.679C49.5 100.711 49.5 73.7274 60.0028 53.1145C69.2413 34.9828 83.9828 20.2413 102.114 11.0028C122.727 0.5 149.711 0.5 203.679 0.5H308.321C362.289 0.5 389.273 0.5 409.886 11.0028C428.017 20.2413 442.759 34.9828 451.997 53.1145C462.5 73.7274 462.5 100.711 462.5 154.679V259.321C462.5 313.289 462.5 340.273 451.997 360.886C442.759 379.017 428.017 393.759 409.886 402.997C389.273 413.5 362.289 413.5 308.321 413.5H203.679C149.711 413.5 122.727 413.5 102.114 402.997C83.9828 393.759 69.2413 379.017 60.0028 360.886C49.5 340.273 49.5 313.289 49.5 259.321V154.679Z" fill="white"/>
</clipPath>
</defs>
</svg>
