<svg width="512" height="123" viewBox="0 0 512 123" fill="none" xmlns="http://www.w3.org/2000/svg">
<path d="M163.644 105.618C160.068 105.618 156.936 104.731 154.247 102.956C151.586 101.155 149.515 98.6273 148.037 95.3741C146.558 92.0939 145.818 88.2491 145.818 83.8397V83.7993C145.818 79.3899 146.558 75.5586 148.037 72.3053C149.542 69.052 151.626 66.5381 154.288 64.7636C156.95 62.9622 160.028 62.0615 163.523 62.0615C165.513 62.0615 167.355 62.3841 169.049 63.0294C170.769 63.6478 172.302 64.5485 173.646 65.7315C174.99 66.8876 176.093 68.2723 176.953 69.8855H177.115V46.6151H184.132V104.811H177.115V97.7132H176.953C176.093 99.3533 175.004 100.765 173.686 101.948C172.369 103.104 170.863 104.005 169.169 104.65C167.503 105.295 165.661 105.618 163.644 105.618ZM165.016 99.4071C167.382 99.4071 169.479 98.7618 171.307 97.4712C173.135 96.1807 174.56 94.3658 175.582 92.0267C176.631 89.6875 177.155 86.9585 177.155 83.8397V83.7993C177.155 80.6805 176.631 77.9649 175.582 75.6527C174.533 73.3135 173.095 71.4987 171.267 70.2081C169.465 68.9176 167.382 68.2723 165.016 68.2723C162.542 68.2723 160.404 68.9041 158.603 70.1678C156.802 71.4315 155.417 73.2194 154.449 75.5317C153.481 77.8439 152.997 80.5998 152.997 83.7993V83.8397C152.997 87.0392 153.481 89.8085 154.449 92.1477C155.417 94.4868 156.802 96.2882 158.603 97.5519C160.404 98.7887 162.542 99.4071 165.016 99.4071ZM211.677 105.618C207.671 105.618 204.216 104.731 201.313 102.956C198.436 101.182 196.217 98.6811 194.658 95.4547C193.126 92.2014 192.359 88.3835 192.359 84.001V83.9607C192.359 79.6319 193.139 75.8274 194.698 72.5473C196.258 69.2402 198.449 66.6725 201.272 64.8442C204.095 62.9891 207.416 62.0615 211.234 62.0615C215.052 62.0615 218.332 62.9487 221.074 64.7233C223.844 66.4709 225.968 68.931 227.446 72.1036C228.925 75.2763 229.665 78.9597 229.665 83.1541V85.7352H195.868V80.2503H226.196L222.647 85.3319V82.6298C222.647 79.3765 222.15 76.6878 221.155 74.5638C220.187 72.4397 218.843 70.8669 217.122 69.8452C215.401 68.7966 213.425 68.2723 211.193 68.2723C208.962 68.2723 206.959 68.8235 205.184 69.9258C203.41 71.0013 202.012 72.6145 200.99 74.7654C199.968 76.8895 199.457 79.5109 199.457 82.6298V85.3319C199.457 88.2894 199.955 90.8168 200.95 92.9139C201.971 95.0111 203.41 96.6243 205.265 97.7535C207.12 98.8559 209.311 99.4071 211.839 99.4071C213.613 99.4071 215.199 99.1382 216.598 98.6005C217.996 98.0627 219.165 97.3233 220.106 96.3823C221.047 95.4413 221.719 94.3658 222.123 93.1559L222.244 92.7929H229.14L229.06 93.1962C228.71 94.917 228.038 96.5302 227.043 98.0358C226.075 99.5415 224.825 100.872 223.292 102.029C221.76 103.158 220.012 104.045 218.049 104.69C216.087 105.309 213.963 105.618 211.677 105.618ZM252.451 105.618C249.171 105.618 246.334 105.094 243.941 104.045C241.548 102.996 239.653 101.531 238.255 99.649C236.884 97.767 236.05 95.5757 235.754 93.0752L235.714 92.7123H242.731L242.812 93.1156C243.242 95.2127 244.251 96.8528 245.837 98.0358C247.423 99.192 249.641 99.77 252.491 99.77C254.4 99.77 256.027 99.528 257.371 99.0441C258.716 98.5332 259.751 97.8207 260.477 96.9066C261.203 95.9656 261.566 94.8632 261.566 93.5995V93.5592C261.566 92.0536 261.108 90.8437 260.194 89.9295C259.28 89.0154 257.627 88.2625 255.234 87.671L248.579 86.0578C245.944 85.4125 243.753 84.5791 242.005 83.5574C240.285 82.5088 238.994 81.2317 238.134 79.726C237.273 78.2204 236.843 76.4593 236.843 74.4428V74.4025C236.843 71.9827 237.489 69.8452 238.779 67.99C240.097 66.1348 241.911 64.6829 244.224 63.6343C246.563 62.5858 249.238 62.0615 252.249 62.0615C255.314 62.0615 257.976 62.6127 260.235 63.715C262.52 64.7905 264.308 66.2692 265.599 68.1513C266.916 70.0065 267.655 72.1036 267.817 74.4428L267.857 74.9671H261.162L261.122 74.6848C260.853 72.6414 259.952 71.0013 258.42 69.7645C256.914 68.5277 254.857 67.9093 252.249 67.9093C250.555 67.9093 249.09 68.1647 247.853 68.6756C246.617 69.1864 245.662 69.9124 244.99 70.8534C244.345 71.7676 244.022 72.843 244.022 74.0798V74.1201C244.022 75.0612 244.237 75.9216 244.667 76.7013C245.124 77.4541 245.837 78.1128 246.805 78.6774C247.773 79.2421 249.023 79.7126 250.555 80.089L257.21 81.7022C261.458 82.7239 264.442 84.1354 266.163 85.9368C267.884 87.7114 268.744 90.0908 268.744 93.0752V93.1156C268.744 95.5623 268.032 97.7266 266.607 99.6087C265.209 101.491 263.273 102.97 260.799 104.045C258.353 105.094 255.57 105.618 252.451 105.618ZM294.112 105.618C290.106 105.618 286.651 104.731 283.747 102.956C280.87 101.182 278.652 98.6811 277.093 95.4547C275.56 92.2014 274.794 88.3835 274.794 84.001V83.9607C274.794 79.6319 275.574 75.8274 277.133 72.5473C278.692 69.2402 280.884 66.6725 283.707 64.8442C286.53 62.9891 289.85 62.0615 293.668 62.0615C297.486 62.0615 300.766 62.9487 303.509 64.7233C306.278 66.4709 308.402 68.931 309.881 72.1036C311.36 75.2763 312.099 78.9597 312.099 83.1541V85.7352H278.303V80.2503H308.631L305.082 85.3319V82.6298C305.082 79.3765 304.584 76.6878 303.589 74.5638C302.621 72.4397 301.277 70.8669 299.556 69.8452C297.836 68.7966 295.86 68.2723 293.628 68.2723C291.396 68.2723 289.393 68.8235 287.619 69.9258C285.844 71.0013 284.446 72.6145 283.424 74.7654C282.403 76.8895 281.892 79.5109 281.892 82.6298V85.3319C281.892 88.2894 282.389 90.8168 283.384 92.9139C284.406 95.0111 285.844 96.6243 287.699 97.7535C289.555 98.8559 291.746 99.4071 294.273 99.4071C296.048 99.4071 297.634 99.1382 299.032 98.6005C300.43 98.0627 301.6 97.3233 302.541 96.3823C303.482 95.4413 304.154 94.3658 304.557 93.1559L304.678 92.7929H311.575L311.494 93.1962C311.145 94.917 310.472 96.5302 309.478 98.0358C308.51 99.5415 307.259 100.872 305.727 102.029C304.194 103.158 302.447 104.045 300.484 104.69C298.521 105.309 296.397 105.618 294.112 105.618ZM320.004 104.811V62.8681H327.021V69.9662H327.182C327.881 67.5464 329.091 65.624 330.812 64.199C332.533 62.774 334.576 62.0615 336.942 62.0615C337.561 62.0615 338.112 62.1018 338.596 62.1825C339.107 62.2362 339.497 62.29 339.765 62.3438V69.1596C339.497 69.052 339.013 68.9579 338.314 68.8772C337.641 68.7966 336.875 68.7563 336.015 68.7563C334.213 68.7563 332.627 69.1596 331.256 69.9662C329.911 70.7728 328.863 71.9423 328.11 73.4749C327.384 74.9805 327.021 76.7954 327.021 78.9194V104.811H320.004ZM361.947 105.618C358.102 105.618 355.225 104.704 353.316 102.875C351.407 101.047 350.453 98.1299 350.453 94.1238V68.6756H344.323V62.8681H350.453V51.5353H357.712V62.8681H365.698V68.6756H357.712V94.0835C357.712 96.3151 358.196 97.8342 359.164 98.6408C360.132 99.4205 361.557 99.8104 363.439 99.8104C363.869 99.8104 364.273 99.7969 364.649 99.77C365.052 99.7163 365.402 99.6759 365.698 99.649V105.336C365.267 105.389 364.703 105.443 364.004 105.497C363.332 105.578 362.646 105.618 361.947 105.618Z" fill="white"/>
</svg>
