<svg width="25" height="24" viewBox="0 0 25 24" fill="none" xmlns="http://www.w3.org/2000/svg">
<path d="M2.60004 20H22.6V7C22.6 6.2 22.28 5.44 21.72 4.88C21.16 4.32 20.4 4 19.6 4H5.60004C4.80004 4 4.04004 4.32 3.48004 4.88C2.92004 5.44 2.60004 6.2 2.60004 7V20ZM20.6 11H15.6V9H9.60004V11H4.60004V7C4.60004 6.74 4.71004 6.5 4.89004 6.29C5.10004 6.11 5.34004 6 5.60004 6H19.6C19.87 6 20.1 6.11 20.31 6.29C20.5 6.5 20.6 6.74 20.6 7V11ZM15.6 13H20.6V18H4.60004V13H9.60004L11.6 15H13.6L15.6 13ZM11.6 11H13.6V13H11.6V11Z" fill="black"/>
</svg>
