<svg width="24" height="24" viewBox="0 0 24 24" fill="none" xmlns="http://www.w3.org/2000/svg">
<path d="M19 3H5C4.46957 3 3.96086 3.21071 3.58579 3.58579C3.21071 3.96086 3 4.46957 3 5V19C3 20.11 3.9 21 5 21H19C20.11 21 21 20.11 21 19V5C21 4.46957 20.7893 3.96086 20.4142 3.58579C20.0391 3.21071 19.5304 3 19 3ZM19 19H5V5H19V19Z" fill="white"/>
<mask id="path-2-inside-1_1592_31323" fill="white">
<path d="M17.2605 16.4899L15.2284 16.4899L15.2284 14.5883L17.2605 14.5883L17.2605 16.4899Z"/>
</mask>
<path d="M17.2818 14.5883L17.2818 14.5727L13.175 14.5727L13.175 14.5883L17.2818 14.5883ZM15.2284 16.4899L11.1216 16.4899L11.1216 20.5966L15.2284 20.5966L15.2284 16.4899ZM17.2605 16.4899L17.2605 20.5966L21.3673 20.5966L21.3673 16.4899L17.2605 16.4899ZM17.2605 14.5883L21.3673 14.5883L21.3673 10.4815L17.2605 10.4815L17.2605 14.5883ZM15.2284 14.5883L15.2284 10.4815L11.1216 10.4815L11.1216 14.5883L15.2284 14.5883ZM15.2284 20.5966L17.2605 20.5966L17.2605 12.3831L15.2284 12.3831L15.2284 20.5966ZM21.3673 16.4899L21.3673 14.5883L13.1537 14.5883L13.1537 16.4899L21.3673 16.4899ZM19.3352 16.4899L19.3352 14.5883L11.1216 14.5883L11.1216 16.4899L19.3352 16.4899ZM17.2605 10.4815L15.2284 10.4815L15.2284 18.695L17.2605 18.695L17.2605 10.4815Z" fill="white" mask="url(#path-2-inside-1_1592_31323)"/>
<path d="M16.2595 13.2278C16.2595 6.44601 8.03552 6.35021 8.03552 13.2278C8.03552 13.2278 8.03589 15.6628 8.03589 16.4764" stroke="white" stroke-width="2"/>
</svg>
