<svg width="16" height="16" viewBox="0 0 16 16" fill="none" xmlns="http://www.w3.org/2000/svg">
<path d="M14.6668 8.00004V14C14.6668 14.1769 14.5966 14.3464 14.4716 14.4714C14.3465 14.5965 14.177 14.6667 14.0002 14.6667H2.00016C1.82335 14.6667 1.65378 14.5965 1.52876 14.4714C1.40373 14.3464 1.3335 14.1769 1.3335 14V2.00004C1.3335 1.82323 1.40373 1.65366 1.52876 1.52864C1.65378 1.40361 1.82335 1.33337 2.00016 1.33337H8.00016C8.17697 1.33337 8.34654 1.40361 8.47157 1.52864C8.59659 1.65366 8.66683 1.82323 8.66683 2.00004C8.66683 2.17685 8.59659 2.34642 8.47157 2.47145C8.34654 2.59647 8.17697 2.66671 8.00016 2.66671H2.66683V13.3334H13.3335V8.00004C13.3335 7.82323 13.4037 7.65366 13.5288 7.52864C13.6538 7.40361 13.8234 7.33337 14.0002 7.33337C14.177 7.33337 14.3465 7.40361 14.4716 7.52864C14.5966 7.65366 14.6668 7.82323 14.6668 8.00004V8.00004ZM14.2548 1.38471C14.1742 1.35091 14.0876 1.33346 14.0002 1.33337H10.6668C10.49 1.33337 10.3204 1.40361 10.1954 1.52864C10.0704 1.65366 10.0002 1.82323 10.0002 2.00004C10.0002 2.17685 10.0704 2.34642 10.1954 2.47145C10.3204 2.59647 10.49 2.66671 10.6668 2.66671H12.3908L7.52883 7.52871C7.46516 7.59021 7.41437 7.66377 7.37943 7.7451C7.34449 7.82644 7.3261 7.91392 7.32533 8.00244C7.32456 8.09096 7.34143 8.17875 7.37495 8.26068C7.40847 8.34261 7.45797 8.41704 7.52057 8.47964C7.58316 8.54223 7.6576 8.59173 7.73953 8.62526C7.82146 8.65878 7.90924 8.67564 7.99776 8.67487C8.08628 8.67411 8.17376 8.65571 8.2551 8.62078C8.33644 8.58584 8.41 8.53505 8.4715 8.47137L13.3335 3.60937V5.33337C13.3335 5.51019 13.4037 5.67975 13.5288 5.80478C13.6538 5.9298 13.8234 6.00004 14.0002 6.00004C14.177 6.00004 14.3465 5.9298 14.4716 5.80478C14.5966 5.67975 14.6668 5.51019 14.6668 5.33337V2.00004C14.6664 1.91262 14.649 1.82613 14.6155 1.74537C14.5478 1.5821 14.4181 1.45237 14.2548 1.38471V1.38471Z" fill="#FCCE5D"/>
</svg>
