<svg width="20" height="20" viewBox="0 0 20 20" fill="none" xmlns="http://www.w3.org/2000/svg">
<path d="M15.8334 17.5H6.66669V5.83331H15.8334V17.5ZM15.8334 4.16665H6.66669C6.22466 4.16665 5.80074 4.34224 5.48818 4.6548C5.17561 4.96736 5.00002 5.39129 5.00002 5.83331V17.5C5.00002 17.942 5.17561 18.3659 5.48818 18.6785C5.80074 18.991 6.22466 19.1666 6.66669 19.1666H15.8334C16.2754 19.1666 16.6993 18.991 17.0119 18.6785C17.3244 18.3659 17.5 17.942 17.5 17.5V5.83331C17.5 5.39129 17.3244 4.96736 17.0119 4.6548C16.6993 4.34224 16.2754 4.16665 15.8334 4.16665V4.16665ZM13.3334 0.833313H3.33335C2.89133 0.833313 2.4674 1.00891 2.15484 1.32147C1.84228 1.63403 1.66669 2.05795 1.66669 2.49998V14.1666H3.33335V2.49998H13.3334V0.833313Z" fill="#5A6876"/>
</svg>
