<svg width="25" height="24" viewBox="0 0 25 24" fill="none" xmlns="http://www.w3.org/2000/svg">
<path d="M13.2 8C13.2 5.24 10.74 3 7.70001 3C4.66001 3 2.20001 5.24 2.20001 8H4.20001L5.20001 7L6.20001 8H10.2M13.2 7.14C14.2126 6.39135 15.4407 5.99134 16.7 6C19.74 6 22.2 8.24 22.2 11H19.2L18.2 10L17.2 11H14.2" stroke="#FDC226" stroke-width="2" stroke-linecap="round" stroke-linejoin="round"/>
<path d="M6.09004 9.70997C3.94004 11.86 3.79004 15.18 5.74004 17.14L9.98004 12.89L10.68 12.19L11.39 11.48L13.51 9.35997C11.56 7.39997 8.24004 7.55997 6.09004 9.70997Z" stroke="#FDC226" stroke-width="2" stroke-linecap="round" stroke-linejoin="round"/>
<path d="M11.2 15.5C11.7 18 11.03 20 10.2 22H14.2C16.2 16.5 13.7 10 13.2 8" stroke="#FDC226" stroke-width="2" stroke-linecap="round" stroke-linejoin="round"/>
</svg>
