<svg width="20" height="20" viewBox="0 0 20 20" fill="none" xmlns="http://www.w3.org/2000/svg">
<path d="M10.8248 8.81313L9.97125 9.66669H11.1784H17.5C17.5884 9.66669 17.6732 9.70181 17.7357 9.76432C17.7982 9.82683 17.8334 9.91161 17.8334 10C17.8334 10.0884 17.7982 10.1732 17.7357 10.2357C17.6732 10.2982 17.5884 10.3334 17.5 10.3334H11.1784H9.97125L10.8248 11.1869L11.8985 12.2606C11.9578 12.3232 11.9905 12.4064 11.9898 12.4927C11.989 12.5801 11.954 12.6637 11.8921 12.7255C11.8303 12.7873 11.7467 12.8223 11.6593 12.8231C11.5731 12.8239 11.4899 12.7911 11.4273 12.7319L8.93113 10.2357C8.93111 10.2357 8.93109 10.2357 8.93107 10.2356C8.86862 10.1731 8.83353 10.0884 8.83353 10C8.83353 9.91163 8.86864 9.82686 8.93113 9.76435L11.4273 7.26818C11.4899 7.20892 11.5731 7.17619 11.6593 7.17694C11.7467 7.1777 11.8303 7.21276 11.8921 7.27456C11.954 7.33636 11.989 7.41997 11.9898 7.50736C11.9905 7.59364 11.9578 7.67681 11.8985 7.73941L10.8248 8.81313ZM17.8334 2.50002C17.8334 2.58843 17.7982 2.67321 17.7357 2.73572C17.6732 2.79823 17.5884 2.83335 17.5 2.83335H2.50002C2.41161 2.83335 2.32683 2.79823 2.26432 2.73572C2.20181 2.67321 2.16669 2.58843 2.16669 2.50002C2.16669 2.41161 2.20181 2.32683 2.26432 2.26432C2.32683 2.20181 2.41161 2.16669 2.50002 2.16669H17.5C17.5884 2.16669 17.6732 2.20181 17.7357 2.26432C17.7982 2.32683 17.8334 2.41161 17.8334 2.50002ZM6.66669 7.83335H2.50002C2.41162 7.83335 2.32683 7.79823 2.26432 7.73572C2.20181 7.67321 2.16669 7.58843 2.16669 7.50002C2.16669 7.41162 2.20181 7.32683 2.26432 7.26432C2.32683 7.20181 2.41162 7.16669 2.50002 7.16669H6.66669C6.75509 7.16669 6.83988 7.20181 6.90239 7.26432C6.9649 7.32683 7.00002 7.41162 7.00002 7.50002C7.00002 7.58843 6.9649 7.67321 6.90239 7.73572C6.83988 7.79823 6.75509 7.83335 6.66669 7.83335ZM6.66669 12.8334H2.50002C2.41162 12.8334 2.32683 12.7982 2.26432 12.7357C2.20181 12.6732 2.16669 12.5884 2.16669 12.5C2.16669 12.4116 2.20181 12.3268 2.26432 12.2643C2.32683 12.2018 2.41162 12.1667 2.50002 12.1667H6.66669C6.75509 12.1667 6.83988 12.2018 6.90239 12.2643C6.9649 12.3268 7.00002 12.4116 7.00002 12.5C7.00002 12.5884 6.9649 12.6732 6.90239 12.7357C6.83988 12.7982 6.75509 12.8334 6.66669 12.8334ZM17.5 17.8334H2.50002C2.41161 17.8334 2.32683 17.7982 2.26432 17.7357C2.20181 17.6732 2.16669 17.5884 2.16669 17.5C2.16669 17.4116 2.20181 17.3268 2.26432 17.2643C2.32683 17.2018 2.41161 17.1667 2.50002 17.1667H17.5C17.5884 17.1667 17.6732 17.2018 17.7357 17.2643C17.7982 17.3268 17.8334 17.4116 17.8334 17.5C17.8334 17.5884 17.7982 17.6732 17.7357 17.7357C17.6732 17.7982 17.5884 17.8334 17.5 17.8334Z" fill="#5A6876" stroke="#5A6876"/>
</svg>
