<svg width="25" height="24" viewBox="0 0 25 24" fill="none" xmlns="http://www.w3.org/2000/svg">
<path d="M19.7999 3H5.79993C5.26949 3 4.76079 3.21071 4.38571 3.58579C4.01064 3.96086 3.79993 4.46957 3.79993 5V19C3.79993 20.11 4.69993 21 5.79993 21H19.7999C20.9099 21 21.7999 20.11 21.7999 19V5C21.7999 4.46957 21.5892 3.96086 21.2141 3.58579C20.8391 3.21071 20.3304 3 19.7999 3ZM19.7999 19H5.79993V5H19.7999V19ZM8.20993 8.29L12.7999 12.88L17.3899 8.29L18.7999 9.71L12.7999 15.71L6.79993 9.71L8.20993 8.29Z" fill="white"/>
</svg>
