<svg width="20" height="20" viewBox="0 0 20 20" fill="none" xmlns="http://www.w3.org/2000/svg">
<path d="M3.33331 2.83335H2.83331V3.33335V6.66669C2.83331 6.75509 2.79819 6.83988 2.73568 6.90239C2.67317 6.9649 2.58838 7.00002 2.49998 7.00002C2.41157 7.00002 2.32679 6.9649 2.26428 6.90239C2.20177 6.83988 2.16665 6.75509 2.16665 6.66669V2.50002C2.16665 2.41161 2.20177 2.32683 2.26428 2.26432C2.32679 2.20181 2.41157 2.16669 2.49998 2.16669H6.66665C6.75505 2.16669 6.83984 2.20181 6.90235 2.26432C6.96486 2.32683 6.99998 2.41162 6.99998 2.50002C6.99998 2.58843 6.96486 2.67321 6.90235 2.73572C6.83984 2.79823 6.75505 2.83335 6.66665 2.83335H3.33331ZM2.83331 16.6667V17.1667H3.33331H6.66665C6.75505 17.1667 6.83984 17.2018 6.90235 17.2643C6.96486 17.3268 6.99998 17.4116 6.99998 17.5C6.99998 17.5884 6.96486 17.6732 6.90235 17.7357C6.83984 17.7982 6.75505 17.8334 6.66665 17.8334H2.49998C2.41157 17.8334 2.32679 17.7982 2.26428 17.7357C2.20177 17.6732 2.16665 17.5884 2.16665 17.5V13.3334C2.16665 13.2449 2.20177 13.1602 2.26428 13.0977C2.32679 13.0351 2.41157 13 2.49998 13C2.58838 13 2.67317 13.0351 2.73568 13.0977C2.79819 13.1602 2.83331 13.2449 2.83331 13.3334V16.6667ZM16.6666 17.1667H17.1666V16.6667V13.3334C17.1666 13.2449 17.2018 13.1602 17.2643 13.0977C17.3268 13.0351 17.4116 13 17.5 13C17.5884 13 17.6732 13.0351 17.7357 13.0977C17.7982 13.1602 17.8333 13.2449 17.8333 13.3334V17.5C17.8333 17.5884 17.7982 17.6732 17.7357 17.7357C17.6732 17.7982 17.5884 17.8334 17.5 17.8334H13.3333C13.2449 17.8334 13.1601 17.7982 13.0976 17.7357C13.0351 17.6732 13 17.5884 13 17.5C13 17.4116 13.0351 17.3268 13.0976 17.2643C13.1601 17.2018 13.2449 17.1667 13.3333 17.1667H16.6666ZM17.1666 3.33335V2.83335H16.6666H13.3333C13.2449 2.83335 13.1601 2.79823 13.0976 2.73572C13.0351 2.67321 13 2.58843 13 2.50002C13 2.41162 13.0351 2.32683 13.0976 2.26432C13.1601 2.20181 13.2449 2.16669 13.3333 2.16669H17.5C17.5884 2.16669 17.6732 2.20181 17.7357 2.26432C17.7982 2.32683 17.8333 2.41161 17.8333 2.50002V6.66669C17.8333 6.75509 17.7982 6.83988 17.7357 6.90239C17.6732 6.9649 17.5884 7.00002 17.5 7.00002C17.4116 7.00002 17.3268 6.9649 17.2643 6.90239C17.2018 6.83988 17.1666 6.75509 17.1666 6.66669V3.33335ZM1.66665 9.66669H18.3333C18.4217 9.66669 18.5065 9.70181 18.569 9.76432C18.6315 9.82683 18.6666 9.91161 18.6666 10C18.6666 10.0884 18.6315 10.1732 18.569 10.2357C18.5065 10.2982 18.4217 10.3334 18.3333 10.3334H1.66665C1.57824 10.3334 1.49346 10.2982 1.43094 10.2357C1.36843 10.1732 1.33331 10.0884 1.33331 10C1.33331 9.91162 1.36843 9.82683 1.43094 9.76432C1.49346 9.70181 1.57824 9.66669 1.66665 9.66669Z" fill="#5A6876" stroke="#5A6876"/>
</svg>
